<svg xmlns="http://www.w3.org/2000/svg" viewBox="0 0 303.01 316.02"><g id="Layer_2" data-name="Layer 2"><g id="Layer_1-2" data-name="Layer 1"><path d="M23.18,280.61a59.88,59.88,0,0,1-9.09-13.93A113.8,113.8,0,0,1,3.18,211.44c1.67-30,11.56-57.06,30.87-80.25C49.21,113,68,100.41,92,97.14c20.79-2.82,39.29,3,55.92,15.29,2.88,2.12,4.79,2.39,7.76.09,24.87-19.21,57.69-21.47,86.3-4.37,26.93,16.1,42.34,40.4,51.68,69.45,4.94,15.4,7.25,31.12,6,47.21-1.83,23.85-8.82,45.93-25.56,63.67-18.41,19.51-41.41,26.91-68,23.53a109,109,0,0,1-43-14.46c-3.27-2-3.24-2.16-.14-4.43,6.24-4.57,12.64-9,18.23-14.32,2.35-2.27,4.33-1.41,6.76-.41,12.82,5.28,26,7.35,39.9,5.14,13.4-2.14,22.68-10.45,30-20.71,11.68-16.39,15.4-35.14,13.44-55.09-2-20.63-8.87-39.44-21.91-55.61-8.77-10.88-19-20.2-32.83-24.46-17.37-5.33-32.92-2.12-47,9.34-5.47,4.46-9.93,9.81-14.68,14.91-3.45,3.7-3.83,3.87-7.11-.16a102.32,102.32,0,0,0-18.12-17.24c-12.14-9.09-25.73-11.61-40.4-7.87C70.54,131.43,58.22,144.51,48.24,160,34,182.14,28.44,207.16,25.56,232.92c-1.61,14.41-1.5,28.87-1.43,43.33v4.06Z" style="fill:#ed1e79;stroke:#ed1e79;stroke-miterlimit:10;stroke-width:6px"/><path d="M62.8,195a38.07,38.07,0,0,0-1.22,9.13q0,38,0,76c0,4.95.06,4.92,5,5.2,28.72,1.6,54.13-6.23,77-24.3,27.91-22.09,51.6-47.76,70.43-77.81,6.52-10.4,13.08-21,16.55-33,.74-2.56,2-2.79,4-1,6.6,5.73,11.48,12.75,15.9,20.18,1.37,2.31.66,4.18-.34,6.31a266.85,266.85,0,0,1-41.76,62.72C190.58,258.42,171.4,276.91,149,291.8,128.64,305.33,106.67,313.42,81.9,313c-14.23-.24-28.46-.05-42.69-.06-5,0-5.44-.34-5.45-5.2,0-15.85-.42-31.71.14-47.53.69-19.82,2.37-39.64,7.15-58.94,4.68-18.93,12-36.77,26.17-51,3.47-3.47,3.77-3.39,5.64,1.2a234.5,234.5,0,0,0,43.33,69,354.11,354.11,0,0,0,25.87,26c1.87,1.69,1.58,2.69-.28,4-5.56,4-11.15,8-16.53,12.26-3,2.37-5.24,1.88-7.77-.6-7.74-7.61-15.43-15.25-22.62-23.41a286.48,286.48,0,0,1-27.79-36.61C65.71,200,64.46,197.81,62.8,195Z" style="fill:#ed1e79;stroke:#ed1e79;stroke-miterlimit:10;stroke-width:6px"/><path d="M111.29,3.21c23.72,0,47.44-.42,71.14.09,44,.94,79.19,32.48,85.83,77.54,1.46,9.93,1.19,19.87.48,29.82-.11,1.41.12,3.34-1.39,4-1.71.82-2.56-1.08-3.66-2-5.73-4.62-11.43-9.3-17.78-13-3.27-1.92-4.72-4.17-4.76-8-.3-30.17-22.17-52-45.72-58.64a44.74,44.74,0,0,0-12.2-1.57q-52.44,0-104.87-.05c-4.11,0-8.22-.14-12.32-.27s-4.76.51-4.74,4.62c.08,18.84.09,37.67.34,56.51,0,3.7-1,6.06-4.4,7.74a62.22,62.22,0,0,0-17.77,12.91c-1,1-2.15,2.48-3.81,1.75-1.49-.66-1.1-2.36-1.19-3.69-1.63-25.68-.31-51.38-.69-77.07-.12-8.1,0-16.22,0-24.32C33.78,3,33.79,3,40.51,3q35.38,0,70.78,0Z" style="fill:#ed1e79;stroke:#ed1e79;stroke-miterlimit:10;stroke-width:6px"/></g></g></svg>