<svg xmlns="http://www.w3.org/2000/svg" viewBox="0 0 392 273"><g id="Layer_2" data-name="Layer 2"><g id="Layer_1-2" data-name="Layer 1"><path d="M392,273H0V0H392ZM121.27,194.62l-1.24.21c-3.67-10.13-7.26-20.3-11-30.39-6.53-17.47-12.89-35-20-52.27a34.37,34.37,0,0,0-9.6-12.43c-11-9.32-24.69-7.45-37.78-7.38-.74,0-1.47,1.4-2.2,2.14.9.81,1.66,2,2.72,2.37,13,4.64,17.46,10.82,16.84,24.7-1,23.3-2.06,46.61-3.63,69.89-.88,12.92-2.6,25.81-4.46,38.64-.89,6.17-4.26,11.12-10.48,13.63-1,.4-1.62,1.76-2.41,2.68,1,.59,2.08,1.68,3.13,1.69q16.74.18,33.49,0c.92,0,1.83-1,2.75-1.53-.66-.85-1.13-2.1-2-2.51C68.73,241,66,235.12,65,228.52a100.36,100.36,0,0,1-1-18.41c.94-25.14,2.19-50.27,3.37-75.41.09-2.06.49-4.11.93-7.63,1.09,2.42,1.61,3.41,2,4.45q18.41,48.61,36.85,97.22c1.14,3,.92,7.59,5.74,7.69,5.08.11,5.16-4.63,6.35-7.78q18.63-49.32,37-98.74c.46-1.22,1.18-2.33,2.34-4.58.51,9.19,1,17,1.37,24.58,7.52.94,14.8,2.59,16.56-7.47a1.51,1.51,0,0,1,.53-.83c7.6-5.91,7.56-14.12,7-22.57a29.71,29.71,0,0,1,.4-7c1.23-7.26,4.79-12.66,12.23-15,1.19-.37,2.12-1.6,3.17-2.42-1.34-.66-2.66-1.84-4-1.88-6.16-.18-12.34.18-18.49-.06-12.11-.47-19.25,5.69-23.34,16.52-6,15.9-12.18,31.74-18.25,47.61Q128.44,175.73,121.27,194.62ZM243.85,159c-4.09,4.63-6.67,8.77-10.33,11.47-12.29,9.08-15.43,21-14.11,35.7.82,9.16-.77,18.59-1.74,27.85-.44,4.19-2.3,8-6.83,9.72-1.32.51-2.32,1.86-3.47,2.83,1.58.55,3.16,1.57,4.74,1.58,13.16.08,26.33,0,39.49-.08a8.58,8.58,0,0,0,3-.22,3.78,3.78,0,0,0,1.9-1.82c.14-.29-.8-1.55-1.36-1.65-8.53-1.4-9.46-8.21-9.92-14.69-.74-10.46-1-21-1-31.46-.07-15.93,7.29-25.64,22.84-29.7,7.38-1.92,15.06-2.7,22.57-4.19,4.13-.82,5.31.84,5.26,4.74-.13,12.5.15,25-.12,37.5-.19,8.65-.84,17.3-1.66,25.91-.49,5.21-2.66,9.61-8.21,11.49-.9.3-1.5,1.5-2.23,2.29,1,.58,2.06,1.66,3.09,1.67q21.75.26,43.49.19c1.1,0,2.19-1,3.28-1.53-.84-.85-1.55-2.2-2.54-2.47-4.82-1.28-7.31-4.53-8-9.18a95.47,95.47,0,0,1-1.67-14.35q-.21-50.51,0-101a41.13,41.13,0,0,1,2.21-14.21c1.22-3.21,4.69-5.58,7.23-8.25A46.07,46.07,0,0,1,333.26,94c-1.42-.53-2.84-1.51-4.25-1.51-14.33,0-28.66.14-43,.3a20.08,20.08,0,0,0-3.9.82c-.27.59-.54,1.18-.82,1.77.79.29,1.55.63,2.35.85,6.45,1.76,9,6.61,9.46,12.67.76,10.79,1.41,21.6,1.61,32.41.27,15.1.06,15-14.85,16.63-12,1.33-23.75,3.66-33.5,11.65-.4.33-1.14.23-2,.36C244.23,166.57,244.08,163.49,243.85,159Zm-112.7-1c5.6-8.66,5.72-10.18,1.81-18.09-6.33-12.78-11.86-25.77-10.89-40.52.86-13.06,5.43-24.46,15.77-32.79,12.61-10.15,30.28-6.66,41.76,7.81,6.3,7.95,6.3,7.95,12.36-.28,12.72-17.29,36.34-17.76,48.49-.83a49.08,49.08,0,0,1,9.51,28c.47,21.27-8.59,38.8-22.12,54.21-8.78,10-18.74,19-27.65,28.84A308.61,308.61,0,0,0,177.44,212c-4.53,6.39-6.28,14.32-5.58,22.4.56,6.47,4.85,11.74,10.51,13.27,6.08,1.63,13-.61,16.12-5.22,5.28-7.82,3.1-24.46-4.05-30.92-5.4,4.64-6.06,7.07-4.37,13.09a14.11,14.11,0,0,1,.42,7.32c-.52,1.82-2.77,3.13-4.26,4.67-1.08-1.66-3.33-3.58-3-4.94,1.22-5.57,1.9-12,5.19-16.24a280,280,0,0,1,26.07-28.82c15.48-15.05,30.58-30.26,39.4-50.45,14.54-33.24,10-70.73-27.91-92.3-10.27-5.84-20.7-11.58-30.26-18.47-7.15-5.15-12.4-5.45-19.79-.24-13.17,9.28-27.74,16.57-40.81,26C116.45,64.55,109,83.81,110.23,106.48c.92,16.59,7.45,31.31,16.13,45.18C127.66,153.72,129.31,155.56,131.15,158Zm42.62-3.36c-2.92-.24-6.21-.62-9.5-.76-4.15-.18-5.75,1.93-4.93,6,1.62,8,6.2,13.47,13.77,16.43,2.32.9,4.83,1.4,7,2.51,2.92,1.47,3.34,5.53,1.23,8.76-2.23,3.4-4.28,1.92-6.48-.1-8.62-8-18.72-14.4-25.37-24.44-.38-.58-1.2-.87-2.4-1.7-1.09,5.28-6.25,9.76-1.33,14.7,9.63,9.66,19.63,18.95,29.6,28.26.76.71,3.23,1,3.67.45,5-6.13,11.62-11.55,12.34-20.06.41-4.89,2.54-6.74,6.88-8.13,9-2.88,14.68-10.44,14.7-18.17,0-3.82-1.53-5.69-5.39-5.16-3.43.47-6.82,1.13-9.75,1.62-2.46-4.95-4.35-9.94-7.24-14.26-3.25-4.87-6-4.87-9.26-.11C178.42,144.71,176.39,149.61,173.77,154.6Zm45.92,5.67a41.56,41.56,0,0,0,3.58-2.78c15.88-17.08,24-36.93,21.8-60.57-.28-3.12-1.61-4-4.36-4q-10.76,0-21.49-.23c-3.16-.06-6.32-.46-9.47-.41A3.36,3.36,0,0,0,207.16,94a3,3,0,0,0,1.46,2.56c8.73,2.58,9.85,9.92,10.21,17.12.65,13.14.62,26.31.86,39.47C219.72,155,219.69,157,219.69,160.27Zm-57.43,35c-.3,2.79-.5,3.76-.49,4.72,0,8.83.27,17.67,0,26.49-.22,7.23-2,13.88-9.19,17.71-.9.48-1.3,1.89-2.3,3.44H175c-5.89-9.39-7.16-13-5.61-21,.93-4.84,3.22-9.4,4.69-14.14.5-1.62,1.19-4.13.41-5C171,203.48,167.09,200,162.26,195.27Z" style="fill:#fff"/><path d="M121.27,194.62q7.2-18.88,14.4-37.76c6.07-15.87,12.24-31.71,18.25-47.61,4.09-10.83,11.23-17,23.34-16.52,6.15.24,12.33-.12,18.49.06,1.36,0,2.68,1.22,4,1.88-1.05.82-2,2-3.17,2.42-7.44,2.31-11,7.71-12.23,15a29.71,29.71,0,0,0-.4,7c.59,8.45.63,16.66-7,22.57a1.51,1.51,0,0,0-.53.83c-1.76,10.06-9,8.41-16.56,7.47-.42-7.63-.86-15.39-1.37-24.58-1.16,2.25-1.88,3.36-2.34,4.58q-18.49,49.38-37,98.74c-1.19,3.15-1.27,7.89-6.35,7.78-4.82-.1-4.6-4.71-5.74-7.69q-18.56-48.57-36.85-97.22c-.39-1-.91-2-2-4.45-.44,3.52-.84,5.57-.93,7.63-1.18,25.14-2.43,50.27-3.37,75.41a100.36,100.36,0,0,0,1,18.41c1,6.6,3.76,12.44,10.41,15.53.87.41,1.34,1.66,2,2.51-.92.53-1.83,1.52-2.75,1.53q-16.74.16-33.49,0c-1,0-2.09-1.1-3.13-1.69.79-.92,1.41-2.28,2.41-2.68,6.22-2.51,9.59-7.46,10.48-13.63,1.86-12.83,3.58-25.72,4.46-38.64C56.93,168.18,58,144.87,59,121.57c.62-13.88-3.82-20.06-16.84-24.7-1.06-.37-1.82-1.56-2.72-2.37.73-.74,1.46-2.13,2.2-2.14,13.09-.07,26.73-1.94,37.78,7.38A34.37,34.37,0,0,1,89,112.17c7.09,17.24,13.45,34.8,20,52.27,3.78,10.09,7.37,20.26,11,30.39Z"/><path d="M243.85,159c.23,4.48.38,7.56.55,11,.83-.13,1.57,0,2-.36,9.75-8,21.49-10.32,33.5-11.65,14.91-1.66,15.12-1.53,14.85-16.63-.2-10.81-.85-21.62-1.61-32.41-.42-6.06-3-10.91-9.46-12.67-.8-.22-1.56-.56-2.35-.85.28-.59.55-1.18.82-1.77a20.08,20.08,0,0,1,3.9-.82c14.33-.16,28.66-.3,43-.3,1.41,0,2.83,1,4.25,1.51a46.07,46.07,0,0,0-3.56,3.11c-2.54,2.67-6,5-7.23,8.25a41.13,41.13,0,0,0-2.21,14.21q-.27,50.51,0,101A95.47,95.47,0,0,0,321.9,235c.73,4.65,3.22,7.9,8,9.18,1,.27,1.7,1.62,2.54,2.47-1.09.53-2.18,1.53-3.28,1.53q-21.74.06-43.49-.19c-1,0-2.06-1.09-3.09-1.67.73-.79,1.33-2,2.23-2.29,5.55-1.88,7.72-6.28,8.21-11.49.82-8.61,1.47-17.26,1.66-25.91.27-12.49,0-25,.12-37.5.05-3.9-1.13-5.56-5.26-4.74-7.51,1.49-15.19,2.27-22.57,4.19-15.55,4.06-22.91,13.77-22.84,29.7.05,10.49.28,21,1,31.46.46,6.48,1.39,13.29,9.92,14.69.56.1,1.5,1.36,1.36,1.65a3.78,3.78,0,0,1-1.9,1.82,8.58,8.58,0,0,1-3,.22c-13.16.06-26.33.16-39.49.08-1.58,0-3.16-1-4.74-1.58,1.15-1,2.15-2.32,3.47-2.83,4.53-1.75,6.39-5.53,6.83-9.72,1-9.26,2.56-18.69,1.74-27.85-1.32-14.68,1.82-26.62,14.11-35.7C237.18,167.78,239.76,163.64,243.85,159Z"/><path d="M131.15,158c-1.84-2.4-3.49-4.24-4.79-6.3-8.68-13.87-15.21-28.59-16.13-45.18-1.26-22.67,6.22-41.93,24.86-55.35,13.07-9.41,27.64-16.7,40.81-26,7.39-5.21,12.64-4.91,19.79.24,9.56,6.89,20,12.63,30.26,18.47,37.92,21.57,42.45,59.06,27.91,92.3-8.82,20.19-23.92,35.4-39.4,50.45a280,280,0,0,0-26.07,28.82c-3.29,4.24-4,10.67-5.19,16.24-.3,1.36,2,3.28,3,4.94,1.49-1.54,3.74-2.85,4.26-4.67a14.11,14.11,0,0,0-.42-7.32c-1.69-6-1-8.45,4.37-13.09,7.15,6.46,9.33,23.1,4.05,30.92-3.12,4.61-10,6.85-16.12,5.22-5.66-1.53-10-6.8-10.51-13.27-.7-8.08,1-16,5.58-22.4a308.61,308.61,0,0,1,22.75-27.71c8.91-9.88,18.87-18.84,27.65-28.84C241.37,140,250.43,122.51,250,101.24a49.08,49.08,0,0,0-9.51-28C228.3,56.33,204.68,56.8,192,74.09c-6.06,8.23-6.06,8.23-12.36.28-11.48-14.47-29.15-18-41.76-7.81-10.34,8.33-14.91,19.73-15.77,32.79-1,14.75,4.56,27.74,10.89,40.52C136.87,147.78,136.75,149.3,131.15,158ZM208.57,47.53c-6.29-3.83-13.59-8.35-21-12.71a3.85,3.85,0,0,0-3.25-.21c-7.48,4.43-14.87,9-21.72,13.22,7.23,4.33,14.23,8.6,21.35,12.69a4.09,4.09,0,0,0,3.5,0C194.63,56.25,201.69,51.8,208.57,47.53Z"/><path d="M173.77,154.6c2.62-5,4.65-9.89,7.57-14.19,3.24-4.76,6-4.76,9.26.11,2.89,4.32,4.78,9.31,7.24,14.26,2.93-.49,6.32-1.15,9.75-1.62,3.86-.53,5.41,1.34,5.39,5.16,0,7.73-5.69,15.29-14.7,18.17-4.34,1.39-6.47,3.24-6.88,8.13-.72,8.51-7.32,13.93-12.34,20.06-.44.53-2.91.26-3.67-.45-10-9.31-20-18.6-29.6-28.26-4.92-4.94.24-9.42,1.33-14.7,1.2.83,2,1.12,2.4,1.7,6.65,10,16.75,16.47,25.37,24.44,2.2,2,4.25,3.5,6.48.1,2.11-3.23,1.69-7.29-1.23-8.76-2.2-1.11-4.71-1.61-7-2.51-7.57-3-12.15-8.46-13.77-16.43-.82-4,.78-6.15,4.93-6C167.56,154,170.85,154.36,173.77,154.6ZM186,147.36c-4.53,5.91-4.36,14.2.13,17.76A14,14,0,0,0,186,147.36Zm-18.75,14.21c1.76,5.7,5.9,7.45,10.77,8.77C176.56,164.43,173.2,161.63,167.26,161.57Zm37.71-.71c-5.88.74-9.08,3.62-11.37,9.23C199.3,168.76,202.93,166.41,205,160.86Z"/><path d="M219.69,160.27c0-3.3,0-5.23,0-7.16-.24-13.16-.21-26.33-.86-39.47-.36-7.2-1.48-14.54-10.21-17.12A3,3,0,0,1,207.16,94a3.36,3.36,0,0,1,2.59-1.69c3.15,0,6.31.35,9.47.41q10.74.19,21.49.23c2.75,0,4.08.89,4.36,4,2.19,23.64-5.92,43.49-21.8,60.57A41.56,41.56,0,0,1,219.69,160.27Z"/><path d="M162.26,195.27c4.83,4.7,8.78,8.21,12.21,12.15.78.9.09,3.41-.41,5-1.47,4.74-3.76,9.3-4.69,14.14-1.55,8-.28,11.65,5.61,21H150.29c1-1.55,1.4-3,2.3-3.44,7.15-3.83,9-10.48,9.19-17.71.26-8.82,0-17.66,0-26.49C161.76,199,162,198.06,162.26,195.27Z"/><path d="M208.57,47.53c-6.88,4.27-13.94,8.72-21.1,13a4.09,4.09,0,0,1-3.5,0c-7.12-4.09-14.12-8.36-21.35-12.69,6.85-4.2,14.24-8.79,21.72-13.22a3.85,3.85,0,0,1,3.25.21C195,39.18,202.28,43.7,208.57,47.53Z" style="fill:#fff"/><path d="M186,147.36a14,14,0,0,1,.13,17.76C181.65,161.56,181.48,153.27,186,147.36Z" style="fill:#fff"/><path d="M167.26,161.57c5.94.06,9.3,2.86,10.77,8.77C173.16,169,169,167.27,167.26,161.57Z" style="fill:#fff"/><path d="M205,160.86c-2,5.55-5.67,7.9-11.37,9.23C195.89,164.48,199.09,161.6,205,160.86Z" style="fill:#fff"/></g></g></svg>