<svg xmlns="http://www.w3.org/2000/svg" viewBox="0 0 295.25 226.82"><g id="Layer_2" data-name="Layer 2"><g id="Layer_1-2" data-name="Layer 1"><path d="M83.26,173.24q7.2-18.88,14.4-37.76c6.08-15.87,12.25-31.71,18.25-47.61,4.09-10.83,11.23-17,23.34-16.52,6.16.24,12.33-.12,18.49.06,1.36,0,2.68,1.22,4,1.88-1,.82-2,2-3.17,2.42-7.43,2.3-11,7.71-12.22,15a29.72,29.72,0,0,0-.41,7c.59,8.45.63,16.66-7,22.57a1.45,1.45,0,0,0-.52.83c-1.77,10.06-9.05,8.41-16.56,7.47-.43-7.63-.86-15.39-1.38-24.59-1.16,2.26-1.88,3.37-2.34,4.59-12.33,32.91-24.59,65.86-37,98.74-1.19,3.15-1.26,7.89-6.34,7.78-4.83-.1-4.6-4.71-5.74-7.69q-18.56-48.57-36.86-97.22c-.39-1-.9-2-2-4.45-.44,3.52-.84,5.57-.94,7.63-1.18,25.14-2.42,50.27-3.37,75.41a99.5,99.5,0,0,0,1,18.41c1,6.6,3.75,12.44,10.4,15.53.87.41,1.34,1.66,2,2.51-.92.53-1.83,1.52-2.75,1.53q-16.74.16-33.49,0c-1,0-2.09-1.1-3.13-1.69.79-.92,1.41-2.28,2.41-2.69,6.23-2.5,9.59-7.45,10.49-13.63,1.86-12.82,3.58-25.71,4.45-38.63C18.93,146.8,20,123.49,21,100.19c.62-13.88-3.83-20.06-16.85-24.7-1-.37-1.82-1.56-2.72-2.37C2.15,72.37,2.89,71,3.63,71,16.72,70.91,30.35,69,41.4,78.36A34.15,34.15,0,0,1,51,90.79c7.1,17.24,13.45,34.8,20,52.27,3.77,10.09,7.36,20.26,11,30.39Z"/><path d="M205.85,137.63c.22,4.48.37,7.56.54,11,.83-.13,1.58,0,2-.36,9.75-8,21.49-10.32,33.5-11.65,14.92-1.66,15.13-1.53,14.85-16.63-.2-10.81-.85-21.62-1.61-32.41-.42-6.06-3-10.91-9.46-12.67-.8-.22-1.56-.57-2.34-.85.27-.59.54-1.18.82-1.77a19.93,19.93,0,0,1,3.9-.82c14.32-.17,28.65-.3,43-.3,1.42,0,2.83,1,4.25,1.51-1.19,1-2.47,2-3.56,3.11-2.54,2.67-6,5-7.23,8.25a41.37,41.37,0,0,0-2.21,14.21q-.27,50.5,0,101a95.62,95.62,0,0,0,1.67,14.35c.74,4.65,3.22,7.9,8,9.18,1,.27,1.7,1.62,2.54,2.47-1.09.53-2.18,1.53-3.27,1.53q-21.75.06-43.49-.19c-1,0-2.07-1.09-3.1-1.67.74-.79,1.33-2,2.23-2.29,5.55-1.88,7.72-6.28,8.22-11.49.81-8.61,1.46-17.26,1.65-25.91.27-12.49,0-25,.13-37.5,0-3.9-1.14-5.56-5.27-4.74-7.51,1.49-15.19,2.27-22.57,4.19-15.55,4.06-22.91,13.77-22.83,29.7.05,10.49.28,21,1,31.46.46,6.48,1.4,13.29,9.92,14.69.57.1,1.51,1.36,1.37,1.65a3.84,3.84,0,0,1-1.91,1.82,8.58,8.58,0,0,1-3,.22c-13.16.06-26.32.16-39.49.08-1.58,0-3.15-1-4.73-1.58,1.15-1,2.14-2.32,3.47-2.83,4.52-1.75,6.38-5.53,6.82-9.72,1-9.26,2.56-18.69,1.74-27.85-1.32-14.68,1.82-26.62,14.12-35.7C199.17,146.4,201.76,142.26,205.85,137.63Z"/><path d="M93.14,136.58c-1.84-2.4-3.49-4.24-4.78-6.3-8.69-13.87-15.22-28.59-16.14-45.18C71,62.43,78.44,43.17,97.09,29.74c13.06-9.4,27.64-16.69,40.8-26,7.4-5.21,12.65-4.92,19.79.24,9.56,6.89,20,12.63,30.27,18.47,37.92,21.57,42.44,59.06,27.91,92.3-8.83,20.19-23.92,35.4-39.41,50.45a281,281,0,0,0-26.06,28.82c-3.3,4.24-4,10.67-5.2,16.24-.3,1.36,2,3.28,3,4.94,1.48-1.54,3.73-2.85,4.25-4.67a14.21,14.21,0,0,0-.41-7.32c-1.7-6-1-8.45,4.36-13.09,7.15,6.46,9.33,23.1,4,30.92-3.11,4.61-10,6.85-16.12,5.22-5.66-1.53-10-6.8-10.51-13.27-.7-8.08,1.05-16,5.59-22.4a308.5,308.5,0,0,1,22.74-27.71c8.92-9.88,18.87-18.84,27.65-28.84,13.53-15.41,22.59-32.94,22.12-54.21a49.08,49.08,0,0,0-9.51-28C190.29,35,166.68,35.42,154,52.71c-6.06,8.23-6.06,8.23-12.36.28-11.49-14.47-29.15-18-41.77-7.81C89.49,53.51,84.92,64.91,84.06,78c-1,14.75,4.57,27.74,10.89,40.52C98.86,126.4,98.75,127.92,93.14,136.58ZM170.56,26.15c-6.29-3.83-13.59-8.35-21-12.71a3.85,3.85,0,0,0-3.25-.21c-7.48,4.42-14.86,9-21.72,13.22,7.23,4.33,14.24,8.6,21.35,12.69a4.09,4.09,0,0,0,3.5,0C156.63,34.87,163.68,30.42,170.56,26.15Z"/><path d="M135.77,133.22c2.61-5,4.64-9.89,7.57-14.19,3.24-4.76,6-4.76,9.25.11,2.89,4.32,4.78,9.31,7.25,14.26,2.92-.49,6.32-1.15,9.74-1.62,3.86-.53,5.41,1.34,5.4,5.16,0,7.73-5.7,15.29-14.7,18.17-4.35,1.39-6.48,3.24-6.89,8.13-.72,8.51-7.31,13.93-12.33,20.06-.44.53-2.92.26-3.68-.45-10-9.31-20-18.6-29.59-28.26-4.92-4.94.23-9.42,1.32-14.7,1.2.83,2,1.12,2.4,1.7,6.65,10,16.75,16.47,25.38,24.44,2.19,2,4.24,3.5,6.47.1,2.12-3.23,1.7-7.29-1.22-8.76-2.21-1.11-4.71-1.61-7-2.51a21.16,21.16,0,0,1-13.78-16.43c-.82-4,.78-6.15,4.93-6C129.56,132.6,132.84,133,135.77,133.22ZM148,126c-4.54,5.91-4.36,14.2.12,17.76A14,14,0,0,0,148,126Zm-18.76,14.21c1.76,5.7,5.9,7.45,10.77,8.77C138.55,143.05,135.2,140.25,129.25,140.19Zm37.71-.71c-5.88.74-9.08,3.62-11.37,9.23C161.29,147.37,164.92,145,167,139.48Z"/><path d="M181.69,138.88c0-3.29,0-5.22,0-7.15-.24-13.16-.2-26.33-.86-39.47-.36-7.2-1.48-14.54-10.21-17.12a3,3,0,0,1-1.46-2.56,3.36,3.36,0,0,1,2.59-1.69c3.15,0,6.31.35,9.47.41q10.74.2,21.49.23c2.75,0,4.08.89,4.37,4,2.19,23.64-5.93,43.49-21.81,60.57A39.43,39.43,0,0,1,181.69,138.88Z"/><path d="M124.26,173.89c4.83,4.7,8.77,8.21,12.21,12.15.78.9.09,3.41-.42,5-1.47,4.74-3.76,9.3-4.69,14.14-1.55,8-.27,11.65,5.61,21H112.28c1-1.55,1.4-3,2.3-3.44,7.16-3.83,9-10.48,9.19-17.71.27-8.82,0-17.66,0-26.49C123.76,177.65,124,176.68,124.26,173.89Z"/><path d="M170.56,26.15c-6.88,4.27-13.93,8.72-21.1,13a4.09,4.09,0,0,1-3.5,0c-7.11-4.09-14.12-8.36-21.35-12.69,6.86-4.2,14.24-8.8,21.72-13.22a3.85,3.85,0,0,1,3.25.21C157,17.8,164.27,22.32,170.56,26.15Z" style="fill:#fff"/><path d="M148,126a14,14,0,0,1,.12,17.76C143.65,140.18,143.47,131.89,148,126Z" style="fill:#fff"/><path d="M129.25,140.19c5.95.06,9.3,2.86,10.77,8.77C135.15,147.64,131,145.89,129.25,140.19Z" style="fill:#fff"/><path d="M167,139.48c-2,5.55-5.67,7.89-11.37,9.23C157.88,143.1,161.08,140.22,167,139.48Z" style="fill:#fff"/></g></g></svg>